<svg width="199" height="45" viewBox="0 0 199 45" fill="none" xmlns="http://www.w3.org/2000/svg">
<path d="M9.66 33.21C7.2 33.21 5.18 32.63 3.6 31.47C2.02 30.29 1.17 28.61 1.05 26.43H7.32C7.38 27.17 7.6 27.71 7.98 28.05C8.36 28.39 8.85 28.56 9.45 28.56C9.99 28.56 10.43 28.43 10.77 28.17C11.13 27.89 11.31 27.51 11.31 27.03C11.31 26.41 11.02 25.93 10.44 25.59C9.86 25.25 8.92 24.87 7.62 24.45C6.24 23.99 5.12 23.55 4.26 23.13C3.42 22.69 2.68 22.06 2.04 21.24C1.42 20.4 1.11 19.31 1.11 17.97C1.11 16.61 1.45 15.45 2.13 14.49C2.81 13.51 3.75 12.77 4.95 12.27C6.15 11.77 7.51 11.52 9.03 11.52C11.49 11.52 13.45 12.1 14.91 13.26C16.39 14.4 17.18 16.01 17.28 18.09H10.89C10.87 17.45 10.67 16.97 10.29 16.65C9.93 16.33 9.46 16.17 8.88 16.17C8.44 16.17 8.08 16.3 7.8 16.56C7.52 16.82 7.38 17.19 7.38 17.67C7.38 18.07 7.53 18.42 7.83 18.72C8.15 19 8.54 19.25 9 19.47C9.46 19.67 10.14 19.93 11.04 20.25C12.38 20.71 13.48 21.17 14.34 21.63C15.22 22.07 15.97 22.7 16.59 23.52C17.23 24.32 17.55 25.34 17.55 26.58C17.55 27.84 17.23 28.97 16.59 29.97C15.97 30.97 15.06 31.76 13.86 32.34C12.68 32.92 11.28 33.21 9.66 33.21ZM19.3235 24.57C19.3235 22.83 19.6335 21.31 20.2535 20.01C20.8935 18.71 21.7535 17.71 22.8335 17.01C23.9335 16.31 25.1535 15.96 26.4935 15.96C27.6535 15.96 28.6535 16.19 29.4935 16.65C30.3335 17.11 30.9835 17.73 31.4435 18.51V16.17H37.3235V33H31.4435V30.66C30.9835 31.44 30.3235 32.06 29.4635 32.52C28.6235 32.98 27.6335 33.21 26.4935 33.21C25.1535 33.21 23.9335 32.86 22.8335 32.16C21.7535 31.46 20.8935 30.46 20.2535 29.16C19.6335 27.84 19.3235 26.31 19.3235 24.57ZM31.4435 24.57C31.4435 23.49 31.1435 22.64 30.5435 22.02C29.9635 21.4 29.2435 21.09 28.3835 21.09C27.5035 21.09 26.7735 21.4 26.1935 22.02C25.6135 22.62 25.3235 23.47 25.3235 24.57C25.3235 25.65 25.6135 26.51 26.1935 27.15C26.7735 27.77 27.5035 28.08 28.3835 28.08C29.2435 28.08 29.9635 27.77 30.5435 27.15C31.1435 26.53 31.4435 25.67 31.4435 24.57ZM51.2041 33L46.5541 26.1V33H40.6741V10.8H46.5541V22.77L51.2041 16.17H58.2541L51.6241 24.63L58.3741 33H51.2041ZM59.138 24.57C59.138 22.83 59.448 21.31 60.068 20.01C60.708 18.71 61.568 17.71 62.648 17.01C63.748 16.31 64.968 15.96 66.308 15.96C67.468 15.96 68.468 16.19 69.308 16.65C70.148 17.11 70.798 17.73 71.258 18.51V16.17H77.138V33H71.258V30.66C70.798 31.44 70.138 32.06 69.278 32.52C68.438 32.98 67.448 33.21 66.308 33.21C64.968 33.21 63.748 32.86 62.648 32.16C61.568 31.46 60.708 30.46 60.068 29.16C59.448 27.84 59.138 26.31 59.138 24.57ZM71.258 24.57C71.258 23.49 70.958 22.64 70.358 22.02C69.778 21.4 69.058 21.09 68.198 21.09C67.318 21.09 66.588 21.4 66.008 22.02C65.428 22.62 65.138 23.47 65.138 24.57C65.138 25.65 65.428 26.51 66.008 27.15C66.588 27.77 67.318 28.08 68.198 28.08C69.058 28.08 69.778 27.77 70.358 27.15C70.958 26.53 71.258 25.67 71.258 24.57ZM93.8686 29.55H86.3686L85.2286 33H79.0486L86.7586 11.85H93.5386L101.219 33H95.0086L93.8686 29.55ZM92.3986 25.05L90.1186 18.21L87.8686 25.05H92.3986ZM109.345 15.96C110.485 15.96 111.475 16.19 112.315 16.65C113.175 17.11 113.835 17.73 114.295 18.51V16.17H120.175V32.82C120.175 34.4 119.875 35.82 119.275 37.08C118.675 38.36 117.735 39.38 116.455 40.14C115.195 40.9 113.595 41.28 111.655 41.28C109.055 41.28 106.975 40.67 105.415 39.45C103.855 38.23 102.965 36.57 102.745 34.47H108.535C108.655 35.01 108.955 35.43 109.435 35.73C109.915 36.03 110.535 36.18 111.295 36.18C113.295 36.18 114.295 35.06 114.295 32.82V30.66C113.835 31.44 113.175 32.06 112.315 32.52C111.475 32.98 110.485 33.21 109.345 33.21C108.005 33.21 106.785 32.86 105.685 32.16C104.605 31.46 103.745 30.46 103.105 29.16C102.485 27.84 102.175 26.31 102.175 24.57C102.175 22.83 102.485 21.31 103.105 20.01C103.745 18.71 104.605 17.71 105.685 17.01C106.785 16.31 108.005 15.96 109.345 15.96ZM114.295 24.57C114.295 23.49 113.995 22.64 113.395 22.02C112.815 21.4 112.095 21.09 111.235 21.09C110.355 21.09 109.625 21.4 109.045 22.02C108.465 22.62 108.175 23.47 108.175 24.57C108.175 25.65 108.465 26.51 109.045 27.15C109.625 27.77 110.355 28.08 111.235 28.08C112.095 28.08 112.815 27.77 113.395 27.15C113.995 26.53 114.295 25.67 114.295 24.57ZM139.606 24.39C139.606 24.85 139.576 25.31 139.516 25.77H128.386C128.446 26.69 128.696 27.38 129.136 27.84C129.596 28.28 130.176 28.5 130.876 28.5C131.856 28.5 132.556 28.06 132.976 27.18H139.246C138.986 28.34 138.476 29.38 137.716 30.3C136.976 31.2 136.036 31.91 134.896 32.43C133.756 32.95 132.496 33.21 131.116 33.21C129.456 33.21 127.976 32.86 126.676 32.16C125.396 31.46 124.386 30.46 123.646 29.16C122.926 27.86 122.566 26.33 122.566 24.57C122.566 22.81 122.926 21.29 123.646 20.01C124.366 18.71 125.366 17.71 126.646 17.01C127.946 16.31 129.436 15.96 131.116 15.96C132.776 15.96 134.246 16.3 135.526 16.98C136.806 17.66 137.806 18.64 138.526 19.92C139.246 21.18 139.606 22.67 139.606 24.39ZM133.606 22.92C133.606 22.2 133.366 21.64 132.886 21.24C132.406 20.82 131.806 20.61 131.086 20.61C130.366 20.61 129.776 20.81 129.316 21.21C128.856 21.59 128.556 22.16 128.416 22.92H133.606ZM153.022 16.02C154.962 16.02 156.502 16.67 157.642 17.97C158.782 19.25 159.352 20.99 159.352 23.19V33H153.472V23.97C153.472 23.01 153.222 22.26 152.722 21.72C152.222 21.16 151.552 20.88 150.712 20.88C149.832 20.88 149.142 21.16 148.642 21.72C148.142 22.26 147.892 23.01 147.892 23.97V33H142.012V16.17H147.892V18.57C148.412 17.81 149.112 17.2 149.992 16.74C150.872 16.26 151.882 16.02 153.022 16.02ZM161.618 24.57C161.618 22.83 161.978 21.31 162.698 20.01C163.418 18.71 164.418 17.71 165.698 17.01C166.998 16.31 168.478 15.96 170.138 15.96C172.278 15.96 174.078 16.55 175.538 17.73C176.998 18.89 177.938 20.52 178.358 22.62H172.118C171.758 21.52 171.058 20.97 170.018 20.97C169.278 20.97 168.688 21.28 168.248 21.9C167.828 22.5 167.618 23.39 167.618 24.57C167.618 25.75 167.828 26.65 168.248 27.27C168.688 27.89 169.278 28.2 170.018 28.2C171.078 28.2 171.778 27.65 172.118 26.55H178.358C177.938 28.63 176.998 30.26 175.538 31.44C174.078 32.62 172.278 33.21 170.138 33.21C168.478 33.21 166.998 32.86 165.698 32.16C164.418 31.46 163.418 30.46 162.698 29.16C161.978 27.86 161.618 26.33 161.618 24.57ZM198.921 16.17L188.241 41.01H181.851L185.871 32.28L178.971 16.17H185.511L189.051 25.71L192.471 16.17H198.921Z" fill="white"/>
</svg>
